<?xml version="1.0" encoding="UTF-8"?>
<!-- Uploaded to: SVG Find, www.svgrepo.com, Generator: SVG Find Mixer Tools -->
<svg ffill="000000" stroke="black" stroke-width="5" width="800px" height="800px" version="1.1" viewBox="144 144 512 512" xmlns="http://www.w3.org/2000/svg">
 <g>
  <path d="m260.54 574.21c0.63672 0.27344 1.3242 0.41016 2.0156 0.40234 84.438-0.30078 168.86-0.55469 253.27-0.75391 9.0703 0.46094 18.16 0.29297 27.207-0.50391 8.7539-1.2617 16.887-5.2656 23.223-11.438 6.2617-6.168 10.738-13.914 12.949-22.418 2.9727-11.184 1.8633-23.477 1.9648-34.914 0.53906-52.562 0.67188-105.11 0.40234-157.64 0-12.746 0-25.492-0.30078-38.238-0.30078-12.746 0.55469-25.797-0.50391-38.492-0.5625-8.9375-3.6406-17.531-8.8867-24.789-5.2422-7.2578-12.43-12.883-20.738-16.223-8.7656-3.3242-18.391-2.4688-27.609-2.5195h-29.727l-66.504-0.35156-131.59-0.80859h-30.23c-8.9805-0.43359-17.891 1.8125-25.594 6.4492-7.2109 4.7148-12.969 11.344-16.625 19.145-4 9.5508-5.7266 19.898-5.0391 30.23 0.23438 51.824 0.41797 103.68 0.55469 155.58v79.301-0.003907c-0.79688 10.219 0.43359 20.492 3.6289 30.23 3.3984 8.25 9.0781 15.363 16.375 20.504 6.3984 4.4766 13.957 6.9961 21.762 7.2539zm-31.035-39.297c-0.76953-5.2188-1.0391-10.5-0.80469-15.77v-55.418c0-49.777-0.10156-99.57-0.30078-149.38v-38.039c-0.47266-8.8164 1.6641-17.578 6.1445-25.191 4.2344-6.9922 10.855-12.219 18.641-14.711 8.3945-1.6367 16.984-2.043 25.492-1.207 41.379 0.23438 82.742 0.4375 124.09 0.60547l123.18 0.65234c8.2109 0 16.625-0.70703 24.285 2.8711 7.4453 3.6406 13.418 9.7227 16.93 17.23 4.332 8.9688 3.9297 18.59 4.0312 28.312 0 12.695 0.30078 25.441 0.35156 38.188 0.40234 49.375 0.40234 98.73 0 148.07 0 12.762-0.11719 25.492-0.35156 38.188 0 10.078 0.85547 20.957-2.5195 30.781v0.007813c-2.6797 7.9453-8.0195 14.727-15.117 19.195-7 3.7695-14.949 5.4141-22.871 4.7344-80.609 0.30078-161.22 0.53906-241.83 0.70703h-26.453c-0.53125-0.082032-1.0742-0.082032-1.6094 0-16.074-0.65625-28.215-14.41-31.289-29.828z"/>
  <path d="m262.46 557.54c84.289 0 168.52-0.45312 252.81-0.70703v0.003907c8.832 0.5625 17.695 0.39453 26.5-0.50391 6.9141-1.3125 13.062-5.2266 17.18-10.934 4.4023-6.4375 6.5977-14.129 6.25-21.918 0-10.984 0.11719-22 0.35156-33.051 0.40234-44.301 0.50391-88.602 0.30078-132.91 0-22.066-0.16797-44.168-0.50391-66.301 0-9.0703 1.1094-19.195-2.0664-27.91v0.003906c-2.3281-6.5977-6.8438-12.199-12.793-15.871-6.9531-4.082-14.461-3.6289-22.32-3.6289h-29.574l-63.629-0.50391-128.52-0.65625h-29.773c-8.1133 0-17.078-1.2578-24.738 1.9141v0.003907c-7.2773 3.1836-12.949 9.1836-15.719 16.625-3.5273 9.168-2.1172 19.801-2.0664 29.422 0.20312 44.438 0.35156 88.871 0.45312 133.31v66.805 33.301c-0.53516 8.5508 2.0625 17.004 7.3047 23.781 5.0977 6.0977 12.609 9.6523 20.555 9.7227zm-22.973-49.523v-63.582c0-41.816-0.11719-83.648-0.35156-125.5v-31.641c0-9.7227-1.4609-20.152 3.9297-28.918v0.003906c2.2656-3.6523 5.4844-6.6211 9.3125-8.582 3.8242-1.9609 8.1133-2.8438 12.402-2.5547h26.754l120.36 0.60547 117.64 1.0078c8.2109 0 15.668 0 22.168 5.6914 5.7969 5.5039 8.9531 13.227 8.6641 21.211 0.35156 21.008 0.45312 42.02 0.60547 63.078 0.26953 41.648 0.26953 83.312 0 125 0 21.008 0 42.066-0.60547 63.078v-0.003906c-0.14062 7.7617-3.5859 15.09-9.4688 20.152-6.6992 5.4922-14.461 5.0391-22.621 5.0391-80.238 0.30078-160.48 0.53906-240.72 0.70703h-25.191c-4.4609-0.1875-8.7695-1.6406-12.43-4.1953-3.6602-2.5508-6.5156-6.0938-8.2266-10.215-3.9297-9.168-2.2188-20.656-2.2188-30.379z"/>
  <path d="m472.6 502.47c-1.5352-2.1914-3.2188-4.2812-5.0391-6.2461-0.79297-0.71484-1.875-1.0156-2.9219-0.80469-0.79688 0.042969-1.5547 0.34375-2.1641 0.85547-1.8125 1.9375-3.4961 3.9883-5.0391 6.1445-1.7617 2.0156-3.3242 4.6367-5.0391 6.4492-1.7148 1.8125 1.1094 5.4414 3.375 3.375 1.1094-0.95703 2.4688-1.6133 3.6289-2.5195 1.1016-0.92187 2.1445-1.918 3.1211-2.9727 0.90625-0.90625 1.8633-1.9141 2.7695-2.9727 0.85547 1.0586 1.7617 2.0664 2.5703 2.9727h0.003906c0.88672 1.0078 1.8281 1.9688 2.8203 2.875 1.1602 0.95703 2.5703 1.6641 3.6797 2.7188 2.2148 2.1172 5.5938-1.2109 3.375-3.375h-0.003906c-1.8242-2.0742-3.5391-4.2461-5.1367-6.5z"/>
  <path d="m285.73 492.65c-0.73047-0.78125-1.8398-1.0938-2.8711-0.80469-0.90234-0.074219-1.7891 0.25781-2.418 0.90625-5.6445 5.0391-9.6719 11.789-15.418 16.625-2.3672 2.0156 1.0586 5.3906 3.4258 3.375l1.3086-1.0586v7.3047l0.003906 0.003906c-0.44141 3.1758-0.26953 6.4062 0.5 9.5195 0.29688 1.0234 1.207 1.75 2.2695 1.8164 0.39453 0.41016 0.9375 0.64844 1.5117 0.65234 2.9688-0.17578 5.9453-0.17578 8.918 0 2.9219 0 5.9453 0.70703 8.8672 0.55469 0.77344-0.015625 1.5-0.38672 1.9648-1.0078 0.66406-0.33203 1.168-0.91016 1.4102-1.6133 0.72266-3.1172 0.89453-6.3398 0.50391-9.5195l-0.30078-7.3047 1.3594 1.2109c2.3164 2.0664 5.6914-1.3086 3.4258-3.375-5.3906-5.3945-9.1719-12.195-14.461-17.285zm4.3828 16.07c0 3.4258-0.30078 6.8516-0.40234 10.078-0.125 2.1484-0.125 4.3008 0 6.4492-4.6133-0.77344-9.3086-0.89062-13.957-0.35156v-6.0977c0-3.4258-0.30078-6.8516-0.40234-10.078 0.058593-0.29688 0.058593-0.60547 0-0.90625 1.0664-0.80469 2.0742-1.6797 3.0234-2.6172 1.7617-1.5977 3.4414-3.2773 5.0391-5.0391 1.5078 1.7578 3.1055 3.4414 4.7852 5.0391 0.79297 0.86719 1.6523 1.6758 2.5703 2.418-0.30859 0.30859-0.53516 0.6875-0.65625 1.1055z"/>
  <path d="m472.6 517.89c-1.5352-2.1797-3.2188-4.25-5.0391-6.1992-0.76953-0.75391-1.8672-1.0781-2.9219-0.85547-0.79688 0.042968-1.5547 0.34375-2.1641 0.85547-1.8008 1.9492-3.4844 4-5.0391 6.1484-1.7617 2.0664-3.3242 4.6367-5.0391 6.4492-1.7148 1.8125 1.1094 5.4414 3.375 3.375 1.1094-0.95703 2.4688-1.6133 3.6289-2.5195 1.1016-0.92578 2.1445-1.918 3.1211-2.9727 0.90625-0.90625 1.8633-1.9141 2.7695-2.9727 0.85547 1.0586 1.7617 2.0664 2.5703 2.9727h0.003906c0.88672 1.0078 1.8281 1.9648 2.8203 2.8711 1.1602 1.0078 2.5703 1.7148 3.6797 2.7188 2.2148 2.168 5.5938-1.2109 3.375-3.375l-0.003906 0.003906c-1.8242-2.0781-3.5391-4.2461-5.1367-6.5z"/>
  <path d="m527.82 512.3c-1.0586 1.0078-2.4688 1.6133-3.6289 2.5703-1.1016 0.92578-2.1445 1.918-3.125 2.9727-0.90625 0.90625-1.8633 1.9141-2.7695 2.9219l-2.418-2.9219c-0.875-1.0195-1.8203-1.9805-2.8203-2.8711-1.1602-1.0078-2.5703-1.7148-3.6289-2.7695v-0.003907c-1.0156-1-2.6523-0.98828-3.6523 0.027344s-0.99219 2.6484 0.023437 3.6523c1.8047 2.0664 3.4883 4.2383 5.0391 6.5 1.5664 2.1523 3.25 4.2227 5.0391 6.1953 0.75391 0.75 1.832 1.0703 2.8711 0.85547 0.80078-0.058593 1.5625-0.37891 2.168-0.90625 1.8203-1.9258 3.5039-3.9805 5.0352-6.1445 1.543-2.2383 3.2266-4.375 5.0391-6.3984 2.5195-2.3672-0.90625-5.7461-3.1719-3.6797z"/>
  <path d="m527.82 496.88c-1.0586 1.0078-2.4688 1.6133-3.6289 2.5703s-2.1172 1.9141-3.125 2.9219-1.8633 1.9141-2.7695 2.9727l-2.418-2.9766c-0.89062-0.98828-1.832-1.9297-2.8203-2.8203-1.1602-1.0078-2.5703-1.7148-3.6289-2.7695-0.94531-0.94531-2.4805-0.94531-3.4258 0s-0.94531 2.4805 0 3.4258c1.8047 2.0664 3.4844 4.2383 5.0391 6.5 1.5664 2.1523 3.2461 4.2227 5.0391 6.1953 0.74219 0.76562 1.8359 1.0703 2.8711 0.80469 0.73047-0.0625 1.418-0.36328 1.9648-0.85547 1.8203-1.9258 3.5039-3.9805 5.0352-6.1445 1.543-2.2383 3.2266-4.375 5.0391-6.3984 2.5195-2.1172-0.90625-5.4922-3.1719-3.4258z"/>
  <path d="m339.54 493.61c-0.21094 0.050781-0.40234 0.15625-0.55469 0.30469-5.9961 1.332-10.918 5.5898-13.094 11.332-2.1797 5.7422-1.3242 12.195 2.2812 17.168 3.6016 4.9727 9.4648 7.8008 15.598 7.5195 4.9336-0.13672 9.6172-2.1953 13.047-5.7422 3.2344-4.0703 4.5078-9.3633 3.4766-14.461-1.4609-9.6719-10.328-19.746-20.754-16.121zm13.453 28.312-0.003906 0.003906c-2.7852 2.4922-6.4297 3.8125-10.168 3.6836-3.7344-0.125-7.2812-1.6914-9.8906-4.3672-2.6133-2.6758-4.0898-6.2578-4.125-10 0.019531-3.2031 1.0742-6.3125 3.0078-8.8633 1.9375-2.5547 4.6445-4.4102 7.7266-5.293 0.17969 0.050781 0.37109 0.050781 0.55078 0 3.8711-0.5625 7.7969 0.55859 10.785 3.082 2.9844 2.5273 4.7461 6.2109 4.8359 10.117 0.95312 4.125-0.13281 8.457-2.9219 11.641z"/>
  <path d="m350.12 510.38c-2.1953-0.17578-4.4023-0.17578-6.6016 0 0.20312-3.457 0.20312-6.9219 0-10.379 0-1-0.80859-1.8125-1.8125-1.8125-1 0-1.8125 0.8125-1.8125 1.8125 0 4.1797-0.35156 8.3633-0.70703 12.496 0 1.1406 0.92578 2.0664 2.0664 2.0664 3.1172 0.023438 6.2344-0.17578 9.3203-0.60547 2.2188-0.45313 1.4102-3.125-0.45312-3.5781z"/>
  <path d="m403.68 518.7c-4.0742 0.125-7.9141 1.9531-10.578 5.0391-1.7148 1.6641 0.55469 5.0391 2.6211 3.375h-0.003906c4.2148-3.1992 10.047-3.1992 14.258 0 2.0156 1.8125 5.793-0.65625 3.9805-3.0742-2.5117-3.1562-6.2461-5.1016-10.277-5.3398z"/>
  <path d="m403.88 507.91c-6.8398-0.24219-13.41 2.6992-17.785 7.9609-1.5625 1.9648 0.50391 5.5938 2.9727 3.8281 3.8984-3.043 8.582-4.9102 13.5-5.3906 5.2734-0.46875 10.496 1.3672 14.309 5.0391 1.8125 2.0664 5.0391-0.60547 3.7266-2.9219h0.003907c-3.8359-5.4219-10.09-8.6055-16.727-8.5156z"/>
  <path d="m380.6 507.21c-2.3672 2.2148 1.1094 5.543 3.5273 3.5273v-0.003906c5.4805-4.3789 12.27-6.7969 19.285-6.8594 7.0156-0.066406 13.848 2.2266 19.406 6.5078 2.168 1.5625 4.7344-1.8633 2.8203-3.6797v0.003906c-6.0977-5.7891-14.211-8.9727-22.621-8.8789-8.4062 0.09375-16.449 3.4609-22.418 9.3828z"/>
  <path d="m264.22 393.25c3.8398 1.0352 7.7695 1.6914 11.738 1.9648 3.8477 0.92187 7.8438 1.043 11.738 0.35547 1.3398-0.41016 2.3164-1.5625 2.5-2.9492 0.18359-1.3906-0.45703-2.7578-1.6445-3.5-3.5156-1.3672-7.2617-2.0352-11.031-1.9648-4.0859-0.62891-8.2109-0.93359-12.344-0.90625-1.7617 0.03125-3.2383 1.3438-3.4766 3.0898-0.23828 1.7461 0.83203 3.4062 2.5195 3.9102z"/>
  <path d="m270.87 364.38c3.5977 2.1328 7.4375 3.8242 11.438 5.0391 3.6289 1.2109 7.3047 3.0742 10.934 1.2109v-0.003906c1.5195-0.89453 2.0391-2.8516 1.1562-4.3828-2.0156-3.2734-5.7422-3.5273-9.2188-4.5859v0.003906c-3.8438-1.3242-7.7852-2.3516-11.789-3.0742-1.4609-0.21094-2.8828 0.58203-3.4688 1.9336-0.58984 1.3555-0.19922 2.9336 0.94922 3.8594z"/>
  <path d="m281 340.5c2.9727 1.9648 5.8945 4.0312 8.8672 5.8945 2.6797 2.0977 5.7969 3.5781 9.1172 4.332 1.3438-0.023437 2.5781-0.75391 3.25-1.918 0.67188-1.168 0.67969-2.6016 0.023437-3.7773-2.2305-2.5586-4.9766-4.6211-8.0586-6.043-3.0234-1.8125-6.1445-3.4766-9.2188-5.0391-1.7422-0.58203-3.6523 0.11719-4.6055 1.6875-0.95312 1.5664-0.69531 3.5859 0.625 4.8633z"/>
  <path d="m304.27 324.88c2.4688 2.3672 5.0391 5.8945 8.7148 5.8945h0.003907c1.7969-0.023438 3.2461-1.4766 3.2734-3.2734-0.40234-3.8281-3.6797-5.793-6.3477-8.2109l-8.3125-7.6094c-1.4414-0.97656-3.3711-0.79297-4.6016 0.4375-1.2305 1.2305-1.4141 3.1602-0.4375 4.6016 2.3164 2.6719 4.8359 5.5938 7.707 8.1602z"/>
  <path d="m329.46 312.23c3.6289 3.9297 8.9688-1.7617 5.793-5.7422-3.1758-3.9805-7.5586-8.918-10.984-13.602l0.003906-0.003906c-0.89062-1.543-2.8672-2.0742-4.4102-1.1836-1.543 0.89062-2.0742 2.8672-1.1836 4.4102 2.8867 5.8125 6.5117 11.234 10.781 16.121z"/>
  <path d="m352.79 301.86c1.25 1.1445 3.1016 1.3438 4.5664 0.48828 1.4688-0.85547 2.207-2.5625 1.832-4.2148-2.7734-7.0234-6.4648-13.648-10.984-19.699-1.1211-1.582-3.2695-2.043-4.9375-1.0547-1.6719 0.98438-2.3047 3.0859-1.4609 4.832 2.7461 7.0195 6.4414 13.633 10.984 19.648z"/>
  <path d="m374.81 293.19c1.082 1.707 3.2383 2.3789 5.0977 1.5938 1.8594-0.78906 2.8789-2.8047 2.4102-4.7695-2.2656-6.6953-5.0625-13.199-8.3633-19.445-1.5117-3.5781-7.707-1.0078-6.3477 2.6719v-0.003907c1.8555 6.8359 4.2656 13.508 7.2031 19.953z"/>
  <path d="m403.07 291.48c2.168-2.9219 1.1602-6.6992 1.0586-10.078-0.10156-3.375-0.35156-7.6094-0.35156-11.438 0-3.8281-6.0977-5.0391-6.8008-0.90625v0.003906c-0.84766 4.0664-1.3672 8.1953-1.5625 12.344-0.76172 3.7773 0.039063 7.7031 2.2148 10.883 0.78516 0.72656 1.8594 1.0586 2.9141 0.90234 1.0586-0.16016 1.9883-0.78516 2.5273-1.7109z"/>
  <path d="m426.7 293.34c2.0156-2.9766 3.0859-6.4883 3.0742-10.078 0.55469-3.8789 0.55469-7.6562 0.85547-11.539 0.30078-3.8789-5.7422-4.5859-6.6484-0.90625-0.90625 3.6797-2.168 7.6094-2.8711 11.586v0.003906c-1.1094 3.3711-1.1094 7.0078 0 10.379 0.58984 0.92188 1.5703 1.5234 2.6602 1.6328 1.0898 0.10938 2.1719-0.28906 2.9297-1.0781z"/>
  <path d="m508.97 372.19c3.8594-0.47656 7.668-1.2852 11.387-2.418 3.5352-0.35156 6.8359-1.9375 9.3203-4.4844 1.4609-1.9141 0-4.2812-2.0156-5.0391-3.4141-0.59766-6.9297-0.14062-10.078 1.3125-3.5664 0.82031-7.0547 1.9492-10.426 3.375-1.3867 0.9375-2.0391 2.6406-1.6328 4.2617 0.40625 1.6211 1.7812 2.8164 3.4453 2.9922z"/>
  <path d="m512.8 389.22c-1.918 0-3.4766 1.5547-3.4766 3.4727 0 1.9219 1.5586 3.4766 3.4766 3.4766 4.2305 0.22656 8.4688 0.22656 12.695 0 3.6758 0.32031 7.3516-0.56641 10.48-2.5156 0.71484-0.69922 1.0625-1.6953 0.93359-2.6836-0.12891-0.99219-0.71875-1.8633-1.5898-2.3555-3.4102-1.1602-7.082-1.3164-10.578-0.45312z"/>
  <path d="m502.12 350.73c4.0586-3.043 8.3555-5.7539 12.848-8.1133 5.0391-2.6719 0.60547-10.078-4.4336-7.5586v0.003906c-4.8438 2.4844-9.4336 5.4375-13.703 8.8164-3.832 3.0234 1.3594 9.8242 5.2891 6.8516z"/>
  <path d="m426.85 360.6h-0.75391c-7.7578-0.45312-13.453 7.4062-13.652 14.66h-0.003906c-0.10938 7.3828 5.6484 13.523 13.023 13.891 7.3711 0.36719 13.711-5.1758 14.336-12.531 0.50391-7.6055-4.5352-16.324-12.949-16.02zm-1.6641 22.871c-10.078-1.0586-8.8164-17.332 0-18.137 0.47656 0.33203 1.0352 0.52734 1.6133 0.55469 10.629 0.55469 9.2695 18.992-1.6133 17.582z"/>
  <path d="m446.05 355.71c-2.2656-2.2148-5.7422 1.3086-3.4766 3.4766 18.992 17.887 22.016 46.906 11.285 69.98v-0.003906c-4.793 12.152-14.086 21.988-25.945 27.457-12.414 5.2266-26.02 6.9688-39.348 5.0391-10.457-1.4883-20.234-6.0664-28.07-13.148-7.8359-7.0859-13.379-16.348-15.914-26.602-4.6367-20.707-1.8633-42.824 13.301-58.594 9.1133-9.9102 21.059-16.77 34.211-19.648 13.984-2.7695 28.496 0.17188 40.305 8.1641 2.418 1.7148 4.4844-2.1172 2.2656-3.8281-22.52-17.383-52.348-12.543-73.758 4.1797-10.551 8.0039-18.562 18.887-23.074 31.336-3.3711 10.691-4.2852 22.008-2.668 33.102 0.92578 11.156 5.0156 21.816 11.789 30.73 7.9336 10.215 18.906 17.641 31.336 21.211 14.836 4.0469 30.562 3.3633 44.988-1.9648 12.98-4.5898 23.848-13.738 30.582-25.742 15.113-26.551 15.469-62.879-7.8086-85.145z"/>
  <path d="m315.96 386.65c6.6094-30.637 29.027-55.434 58.844-65.094 14.812-4.6445 30.648-4.9141 45.609-0.77734 14.961 4.1406 28.41 12.508 38.727 24.105 10.703 12.641 17.355 28.211 19.094 44.688 0.70703 5.6445 9.4219 5.9961 9.1172 0h0.003906c-1.1797-16.586-7.1953-32.461-17.305-45.66-10.109-13.199-23.871-23.145-39.574-28.602-16.215-5.3398-33.594-6.0664-50.195-2.0977-16.602 3.9688-31.77 12.473-43.816 24.566-12.863 13.074-21.617 29.625-25.191 47.609-0.45312 2.9727 4.0312 4.2344 4.6875 1.2617z"/>
  <path d="m441.41 313.64c2.3516-1.4609 4.1289-3.6836 5.0391-6.2969 1.4609-2.8203 2.8711-5.6445 4.2812-8.5156 2.832-5.4883 5.3398-11.141 7.5078-16.926 1.3594-3.8281-4.2305-5.7422-6.2969-2.6211-3.3672 5.3984-6.3945 11.004-9.0703 16.777-2.3164 4.6836-6.5508 10.379-5.6914 15.77 0.27734 0.83594 0.89844 1.5117 1.707 1.8594 0.80859 0.34766 1.7305 0.33203 2.5234-0.046875z"/>
  <path d="m460.46 325.08c4.3359-3.457 8.0508-7.6328 10.98-12.344 3.5273-4.7344 6.75-9.6211 10.078-14.609 3.3242-4.9883-3.9297-8.0625-6.8008-3.9805-2.8711 4.082-6.6992 9.1172-10.078 13.652-3.543 4.1055-6.5273 8.6602-8.8672 13.555-0.28125 1.2422 0.17578 2.5391 1.1758 3.332 0.99609 0.79297 2.3594 0.94922 3.5117 0.39453z"/>
  <path d="m472.6 333.5c-2.3672 2.5195 0.90625 7.3555 3.8789 5.0391 8.5664-6.6016 16.625-13.754 24.637-21.008 3.8281-3.4766-1.8633-9.0703-5.6914-5.6914-7.8125 7-15.621 14.051-22.824 21.66z"/>
 </g>
</svg>