<?xml version="1.0" encoding="iso-8859-1"?>
<!-- Uploaded to: SVG Repo, www.svgrepo.com, Generator: SVG Repo Mixer Tools -->
<svg fill="#000000" height="400px" width="400px" version="1.1" id="Layer_1" xmlns="http://www.w3.org/2000/svg" xmlns:xlink="http://www.w3.org/1999/xlink" 
	 viewBox="0 0 482 482" xml:space="preserve">
<g transform="translate(0 -540.36)">
	<g>
		<g>
			<path d="M157.165,887.36v-60.5c0-5.5-4.5-10-10-10s-10,4.5-10,10v60.5c-20.1,4.5-35.2,22.3-35.2,43.6c0,24.6,20.3,44.7,45.2,44.7
				c24.9,0,45.2-20,45.2-44.7C192.465,909.66,177.365,891.86,157.165,887.36z M147.165,955.56c-13.9,0-25.2-11.1-25.2-24.7
				c0-13.6,11.3-24.7,25.2-24.7c13.9,0,25.2,11.1,25.2,24.7C172.365,944.46,161.165,955.56,147.165,955.56z"/>
			<path d="M421.465,667.96l-16.8-8.4l16.8-8.4c4.9-2.5,7-8.5,4.5-13.4s-8.5-7-13.4-4.5l-20.3,10.1v-23.7c0-5.5-4.5-10-10-10
				s-10,4.5-10,10v23.7l-20.3-10.1c-4.9-2.5-10.9-0.5-13.4,4.5c-2.5,4.9-0.5,10.9,4.5,13.4l16.8,8.4l-16.8,8.4
				c-4.9,2.5-7,8.5-4.5,13.4c1.7,3.5,5.3,5.5,9,5.5c1.5,0,3-0.3,4.5-1.1l20.3-10.1v23.7c0,5.5,4.5,10,10,10s10-4.5,10-10v-23.7
				l20.3,10.1c1.4,0.7,3,1.1,4.5,1.1c3.7,0,7.2-2,9-5.5C428.365,676.46,426.365,670.46,421.465,667.96z"/>
			<path d="M204.265,856.66v-249c0-15.2-6-29.4-16.8-39.9c-10.7-10.3-24.8-16-39.9-16c-32.3,0-57.6,24.5-57.6,55.9v249
				c-30.3,24.2-42.5,64-30.4,100.7c11.9,38.9,47.2,65,87.9,65c40.1,0,76.2-26.8,88.1-65.1
				C246.765,920.46,234.165,880.66,204.265,856.66z M216.165,951.36c-9.1,30-37.4,51-68.8,51c-31.8,0-59.5-20.5-68.8-51
				c-0.1-0.1-0.1-0.1-0.1-0.2c-9.9-30,1-62.8,27.2-81.5c2.6-1.8,4.2-4.9,4.2-8.1v-254c0-20.1,16.5-35.9,37.6-35.9h0
				c20.6,0,36.7,15.8,36.5,35.9v254c0,3.2,1.6,6.2,4.2,8.1C214.165,888.26,225.365,921.06,216.165,951.36z"/>
			<path d="M327.165,598.66l-16.8-8.4l16.8-8.4c4.9-2.5,7-8.5,4.5-13.4s-8.5-7-13.4-4.5l-20.3,10.1v-23.7c0-5.5-4.5-10-10-10
				s-10,4.5-10,10v23.7l-20.3-10.1c-4.9-2.5-10.9-0.5-13.4,4.5c-2.5,4.9-0.5,10.9,4.5,13.4l16.8,8.4l-16.8,8.4
				c-4.9,2.5-7,8.5-4.5,13.4c1.7,3.5,5.3,5.5,9,5.5c1.5,0,3-0.3,4.5-1.1l20.3-10.1v23.7c0,5.5,4.5,10,10,10s10-4.5,10-10v-23.7
				l20.3,10.1c1.4,0.7,3,1.1,4.5,1.1c3.7,0,7.2-2,9-5.5C334.165,607.06,332.165,601.06,327.165,598.66z"/>
		</g>
	</g>
</g>
</svg>